<svg id="Layer_1" data-name="Layer 1" xmlns="http://www.w3.org/2000/svg" viewBox="0 0 608.25 560.01"><defs><style>.cls-1{fill:#222e99;}</style></defs><path class="cls-1" d="M608.25,432.44v-49.9a16.17,16.17,0,1,0-32.33,0v8.4a5.3,5.3,0,0,1-5.21,5.37h-5.87l.21-3.36a4.83,4.83,0,0,0-4.46-5.12l-99.05-7.26c0-.94,0-2,0-3.26,0-4.59,0-10.67,0-16.75,0-7.37-.07-14.72-.1-19.36h31.23a4.83,4.83,0,0,0,4.83-4.83v-5.23a59.42,59.42,0,0,0,18.43,3.06,51.92,51.92,0,0,0,15-2.18,18.3,18.3,0,0,0,12.9-17.48V264.65a16.14,16.14,0,0,0-31.63-4.75l-30.63-66.18c-6.21-14-16.87-24.79-30-30.5l-.33-.14a78.13,78.13,0,0,0-21.74-5.83v-8.57a44.77,44.77,0,0,0,9-7.89,41,41,0,0,0,6-9.18c13.2-3.66,22.55-12.4,24.11-22.75.37-2.53,1-10-3.18-15.82a76.47,76.47,0,0,0,13.46-29.72,77.29,77.29,0,0,0-.33-33.3,4.83,4.83,0,0,0-5.83-3.6,71.93,71.93,0,0,1-12.2,1.86c-1.45.1-2.91.15-4.37.16a61.63,61.63,0,0,1,5.6-6.05A63.23,63.23,0,0,1,473.6,13.5a4.82,4.82,0,0,0-1.12-8.83,127.41,127.41,0,0,0-89.52,8c-9.06-1.17-21.55-.76-32.39,6.84-19.4,13.61-24.89,44.41-13.37,72.73-4.93,5.88-4.24,14-3.85,16.65,1.55,10.34,10.91,19.08,24.11,22.75a41.15,41.15,0,0,0,6,9.17,44.43,44.43,0,0,0,8.79,7.77v9.1a93.46,93.46,0,0,0-26.87,10.15,47.13,47.13,0,0,0-23,32.31l-9.46,50a51.28,51.28,0,0,0,16.23,47.76l12.69,11.21-43.05,63.05H222.23a75.58,75.58,0,0,0-37.8,10.1c-8,4.62-15.24,8.59-21.63,11.85h0c-1.25.64-2.48,1.26-3.66,1.84-2.55,1.26-6.83,3.37-11.82,2.6l-.16,0a6.78,6.78,0,0,1-4.54-2.87,7.18,7.18,0,0,1-1.13-5.54l1.13-5.52c4.12-20.2-8.72-40.07-28.62-44.31l-44.18-9.4a39.61,39.61,0,0,0-2.92-23,4.83,4.83,0,0,0-8.16-1C52.55,314.51,45.93,322,39.05,329c-5.48,5.61-16.27,15.45-16.37,15.54C18.57,348.27-1.78,368.32.13,397.35c1.86,28.37,23.39,46,32.93,52.42A23.25,23.25,0,0,0,29.65,457H9.45a4.83,4.83,0,0,0-4.83,4.83v93.34A4.83,4.83,0,0,0,9.45,560h589.7a4.83,4.83,0,0,0,4.83-4.83V461.87a28.83,28.83,0,0,0-2.4-11.79c-.39-.87-.82-1.72-1.29-2.54a18.42,18.42,0,0,0,8-15.1ZM570.71,406a15,15,0,0,0,14.87-15v-8.4a6.51,6.51,0,1,1,13,0v49.9a8.62,8.62,0,0,1-6.12,8.26c-11.56,3.45-22.43,1.2-30.3-1.82L564.24,406ZM451.88,379.86,382,374.74l9.3-16.79A38.27,38.27,0,0,0,411,363.9a31.35,31.35,0,0,0,5.3-.46c9.47-1.67,20.29-7.93,23.15-18.2a22.16,22.16,0,0,0,.69-4h11.66c.08,13.32.15,30.48.1,38.66Zm-13.09-48.32c-2.36-7-7.62-13.72-14.89-18.74l2.83-1.34a14.56,14.56,0,0,0,4.65-22.72,14.15,14.15,0,0,0-15.44-4.06l-19.06,6.73L381.26,278.8H487.83V324h0v7.53ZM461.4,256a62.71,62.71,0,0,0,16.75-3.16,63.35,63.35,0,0,0,16.28-8.2l15.07,32.56a5.11,5.11,0,0,1-3.28,1.23h-8.73V274a4.83,4.83,0,0,0-4.83-4.83H461.4Zm59.69,8.65a6.52,6.52,0,1,1,13,0v49.9a8.64,8.64,0,0,1-6.12,8.27c-11.67,3.48-22.62,1.16-30.5-1.91V288.08h8.73a15,15,0,0,0,14.87-15v-8.4ZM459,107.43c-.72,4.85-4.74,9.33-10.67,12.37a52.91,52.91,0,0,0,.94-10.17v-13a8.14,8.14,0,0,1,6.91.77c3.81,2.66,2.94,9.31,2.82,10.06Zm-102.9-80c8.83-6.19,19.49-6.13,26.88-5a4.82,4.82,0,0,0,2.87-.44A118.33,118.33,0,0,1,434.91,9.71a117.11,117.11,0,0,1,24.49,1.87q-2.25,1.81-4.36,3.81A74,74,0,0,0,443,30.27a4.83,4.83,0,0,0,3.58,7.32,82,82,0,0,0,14.53.33A80.75,80.75,0,0,0,470,36.85a67.53,67.53,0,0,1-.61,24.47,66.64,66.64,0,0,1-11.84,26.07,17.85,17.85,0,0,0-8.28-.65V59a4.83,4.83,0,1,0-9.65,0V71a35.43,35.43,0,0,1-10-4,37.42,37.42,0,0,1-15.08-17.52,4.82,4.82,0,0,0-9.07.49,53.93,53.93,0,0,0-1.9,21.67,32.81,32.81,0,0,1-9.84-8.38,33.94,33.94,0,0,1-7.19-19.76,4.83,4.83,0,0,0-9.52-1,56.73,56.73,0,0,1-11,22.36c-1.18,1.46-2.45,2.82-3.76,4.15V59a4.83,4.83,0,0,0-9.66,0v27.7a18.21,18.21,0,0,0-7.11.31c-9.08-23.77-4.84-48.82,10.59-59.65Zm-13.21,80c-.11-.75-1-7.4,2.82-10.06a8.15,8.15,0,0,1,6.91-.77v13a54,54,0,0,0,.94,10.2c-5.93-3-9.95-7.53-10.67-12.38Zm22.61,18.64a5.11,5.11,0,0,0-.28-.68,42,42,0,0,1-2.95-15.76V81.82a64.33,64.33,0,0,0,18.38-21.71,42.61,42.61,0,0,0,28.24,24A4.83,4.83,0,0,0,414.71,78a44.08,44.08,0,0,1-1.86-12.71v-.18A44.47,44.47,0,0,0,439.6,80.81v28.85a41.69,41.69,0,0,1-2.94,15.73,4.15,4.15,0,0,0-.28.69,32.28,32.28,0,0,1-5.26,8.38c-9.77,11.24-23.61,12.82-29.1,13-.73,0-1.45,0-2.18,0-5.49-.16-19.33-1.74-29.1-13a32.56,32.56,0,0,1-5.25-8.39Zm34.08,31,1.36,0,1.37,0a55.09,55.09,0,0,0,17.47-3.47V160l-18.85,24.15-19-24.16v-6.44a55,55,0,0,0,17.66,3.54Zm-49.42,19.12A83.62,83.62,0,0,1,375.09,167l22.05,28a4.82,4.82,0,0,0,3.79,1.84h0a4.83,4.83,0,0,0,3.8-1.86l22.06-28.25A68.44,68.44,0,0,1,447.37,172l.27.11c10.92,4.75,19.82,13.83,25.07,25.64l17.58,38a53.47,53.47,0,0,1-28.89,10.65V221.92a4.83,4.83,0,0,0-9.66,0v47.22H369.55A18.48,18.48,0,0,1,365,252.22l6.38-27.16a4.83,4.83,0,0,0-9.4-2.2l-4.78,20.35-32.06-5.27,6.81-36a37.48,37.48,0,0,1,18.24-25.7Zm-27.7,75.72.85-4.5,31.79,5.23a28.14,28.14,0,0,0,9.12,24.72l.05,0c.3.26.59.53.9.78l27.76,22.42a4.83,4.83,0,0,0,4.64.79l21.6-7.63a4.59,4.59,0,0,1,5,1.32,4.89,4.89,0,0,1,1.1,4.25,4.73,4.73,0,0,1-2.62,3.38l-11.4,5.39a4.82,4.82,0,0,0,.22,8.82c14.3,5.95,20.84,18,18.69,25.72-2,7.11-11,10.48-15.52,11.27-7.08,1.24-14.71-1.18-21.73-6.43a5.7,5.7,0,0,0-.67-.52,60.11,60.11,0,0,1-16-20,4.81,4.81,0,0,0-1.09-1.41L335.6,290.65a41.55,41.55,0,0,1-13.15-38.72Zm45.62,80.3a70.67,70.67,0,0,0,15.36,19.93L371.35,374l-24.56-1.8a4.82,4.82,0,1,0-.71,9.62l209,15.33-2.52,40.29-177.71,8.85c-10.84-5.43-25.58-7.53-42.42-3.66h-4.27a99.86,99.86,0,0,0-4.46-34.94,97.3,97.3,0,0,0-16.34-30.92l41.79-61.19ZM323,452.24h10a4.61,4.61,0,0,0,1.11-.13c14.82-3.5,27.76-1.66,36.82,3a4.45,4.45,0,0,0,1.1.58c6,3.34,10.12,7.94,11.68,13,2.41,7.84-.57,18-7,23.59-6.56,5.77-16.49,6.47-28.73,2a37.44,37.44,0,0,1-14.76-9.93,23.82,23.82,0,0,0-17.37-7.65H228.58V452.24ZM189.23,390.6a66,66,0,0,1,33-8.8h76.88a87.94,87.94,0,0,1,15.45,28.77,90.22,90.22,0,0,1,4,32H203.29a4.83,4.83,0,1,0,0,9.66h15.63v24.42H187.79a25.68,25.68,0,0,1-25.14-22.11l6.75-53c6-3.1,12.61-6.76,19.83-10.94Zm-56.12-8L132,388.17a17,17,0,0,0,2.66,13,16.34,16.34,0,0,0,11,6.91l.18,0a24.39,24.39,0,0,0,3.65.28,27.13,27.13,0,0,0,9.6-1.85l-5.51,43.26h-13a22.76,22.76,0,0,0-9.3-7.74,109.37,109.37,0,0,0-17.56-6.14A88.72,88.72,0,0,0,107,423.14a87.5,87.5,0,0,0-6.57-9,27.54,27.54,0,0,0,4.75-12.58,4.83,4.83,0,0,0-9.62-.87c0,.32-.78,7.92-6.6,11.09-5.63,3.07-13.17.91-15.4-3-.07-.12-1.72-3.09-.53-5.91a6.6,6.6,0,0,1,3.38-3.28,4.83,4.83,0,0,0,2.61-6,83.7,83.7,0,0,0-8.84-18.14c-1.41-2.17-2.92-4.28-4.52-6.31l6.3.43a4.84,4.84,0,0,0,4.72-6.85A49.53,49.53,0,0,0,70,352.1a48,48,0,0,0-6.4-6.43,38.77,38.77,0,0,0,3.2-5.55l45.12,9.6c14.74,3.13,24.24,17.91,21.17,32.93ZM46.34,450.82a98.1,98.1,0,0,1,40.43-8.71,99.26,99.26,0,0,1,40.51,8.74,13.54,13.54,0,0,1-5.36,25.82H51.62a13.36,13.36,0,0,1-13.19-13.48,13.51,13.51,0,0,1,7.91-12.36ZM9.72,396.72c-1.61-24.6,15.89-41.82,19.42-45,.45-.41,11.1-10.13,16.77-15.92,5-5.1,9.84-10.41,14.5-15.87a28.07,28.07,0,0,1-7.21,23.38,4.83,4.83,0,0,0,.87,7.3,38.58,38.58,0,0,1,8.51,7.67c.28.35.56.69.83,1l-9.11-.62A4.83,4.83,0,0,0,50.67,367a73.93,73.93,0,0,1,11.44,13.68,73.94,73.94,0,0,1,6.48,12.49,15.57,15.57,0,0,0-4.41,5.89,16.76,16.76,0,0,0,1,14.46c5,8.75,18.18,12,28,6.93a78.18,78.18,0,0,1,5.71,7.85c1.08,1.7,2.07,3.45,3,5.23A107.16,107.16,0,0,0,42.39,442a21.21,21.21,0,0,0-2,1c-6.73-4.18-28.92-19.92-30.66-46.33ZM594.31,550.34h-580V466.66h14.8a23,23,0,0,0,22.56,19.65h70.3a23,23,0,0,0,22.84-23.14,23.43,23.43,0,0,0-.31-3.75h9.33a35.31,35.31,0,0,0,34,26.89H315.9a14,14,0,0,1,10.3,4.57,47.15,47.15,0,0,0,18.55,12.44,52.29,52.29,0,0,0,17.78,3.43c8.07,0,15.12-2.44,20.61-7.27,9.21-8.09,13.33-22.26,9.81-33.68a28.81,28.81,0,0,0-6-10.48l169.34-8.44a61.48,61.48,0,0,0,24.12,5.21,52.13,52.13,0,0,0,10.7-1.1,18.1,18.1,0,0,1,1.63,3,19.49,19.49,0,0,1,1.59,7.89Z"/></svg>