<?xml version="1.0" encoding="UTF-8"?>
<svg width="700pt" height="700pt" version="1.1" fill = "#222E99" viewBox="0 0 700 700" xmlns="http://www.w3.org/2000/svg" xmlns:xlink="http://www.w3.org/1999/xlink">
 <g>
  <path d="m509.73 223.05c39.406-101.94-62.77-197.12-167.83-197.12-141.43 0-245.37 157.55-146.7 306.24-26.152 29.141-44.051 35.84-44.051 58.234 0 9.1523 3.5703 17.754 10.039 24.223 13.363 13.355 35.078 13.352 48.438 0l22.773-22.777c19.594 49.398 12.211 88.938-3.6133 134.09-0.64062 1.8359-0.35156 3.8711 0.77344 5.457 1.125 1.5859 2.9453 2.5273 4.8906 2.5273 185.21-0.69141 177.77 1.6758 181.14-1.8555 4.9844-5.207-5.9531-33.598 20.938-87.266h28.484c17.422 0 31.602-14.141 31.602-31.52v-24.207c3.6055-4.2266 34.555-8.418 19.938-30.559 8.5352-7.4727 8.5625-17.254 2.0078-26.508 10.945-4.4961 23.07-3.8438 28.523-16.016 2.3594-5.2539 2.3359-11.262-0.0625-16.52-26.277-56.566-46.215-52.805-37.297-76.426zm-308.59 183.09c-8.6719 8.6719-22.797 8.6719-31.469 0-4.2031-4.2031-6.5234-9.793-6.5234-15.738 0-15.793 12.293-18.938 57.227-66.438 1.0859 1.0859 32.836 32.836 31.469 31.469-1.2383 1.2383-52.461 52.465-50.703 50.707zm56.781-111.37c-35.305-46.531-30.664-112.88 10.789-154.33 22.977-22.977 53.148-34.457 83.328-34.457 105.07 0 156.98 127.45 83.328 201.11-50.875 50.871-135.54 44.148-177.45-12.32zm-5.3125 12.641c4.8906 5.8555 10.484 11.367 15.859 15.855l-15.91 15.91-15.859-15.859zm249.52 20.273c-1.9141 8.168 19.289 15.082 2.9062 24.293-3.3203 1.8672-4.0781 6.2969-1.5938 9.1602 5.3672 6.1953 4.9453 8.2969 4.9453 8.3164-0.24609 0.89453-5.0781 2.6914-20.445 10.543-5.7578 2.8672-2.3555 8.8945-3.3281 33.289 0 33.828-51.273 11.582-57.078 22.75-15.031 28.875-22.562 57.738-22.43 85.891h-162.26c15.578-46.5 20.094-89.758-1.25-139.28 15.633-17.977 30.156-24.27 22.969-31.457l-3.5273-3.5273 17.148-17.145c22.141 15.355 47.867 23.004 73.582 23.004 71.527 0 130.09-57.387 130.1-129.73 0.027344-115.41-140.38-173.09-221.65-91.84-44.43 44.43-50.34 114.77-14.855 165.73l-17.16 17.156c-1.2539-0.76562-6.5469-9.1289-12.082-3.5977l-12.258 12.258c-20.293-31.293-33.098-67.613-35.195-100.82-11.695-186.35 239.18-256.69 326.8-92.574 13.734 25.824 14.852 58.125 3.0391 88.668-5.2344 13.879-2.75 26.941 7.1875 37.766 13.664 14.941 24.094 34.348 30.422 47.965 7.332 16.129-31.684 13.332-33.992 23.184z"/>
  <path d="m370.8 305.54 1.5312-6.9297c6.3516-1.7148 12.469-4.2539 18.203-7.5469l5.9844 3.8086c4.0234 2.5898 9.3828 2.0195 12.789-1.3672l12.359-12.383c7.9141-7.7695-1.5508-16.562-2.3906-18.793 3.2891-5.7344 5.8281-11.844 7.5547-18.219 1.8711-0.84375 14.977-0.58984 14.977-11.539-1.1953-9.6445 4.1211-24.828-8-27.582-0.80078-0.18359-7.7773-1.707-6.9766-1.5234-1.7109-6.3281-4.2422-12.438-7.5547-18.223 0.80469-2.1055 10.016-11.195 2.4297-18.762-7.582-5.9023-14.586-20.465-25.172-13.805l-6 3.8398c-5.7031-3.293-11.828-5.832-18.195-7.5469l-1.5391-6.9258c-1.0234-4.7422-5.1406-8.0547-10.008-8.0547h-17.562c-4.8281 0-8.9375 3.293-10.008 8.0312l-1.5312 6.9297c-6.3672 1.7188-12.492 4.2656-18.211 7.5625l-6.0234-3.8594c-4.0859-2.5664-9.3125-1.9961-12.734 1.418l-12.438 12.438c-3.375 3.4258-3.9453 8.6523-1.3672 12.742l3.8203 5.9727c-3.2734 5.7227-5.8047 11.844-7.5469 18.242l-6.9766 1.5234c-4.7109 1.0703-8 5.1875-8 10.02v17.562c0 11.09 12.535 10.441 14.977 11.539 1.7422 6.4023 4.2734 12.52 7.5547 18.238l-3.8438 5.9922c-6.6484 10.527 7.9961 17.664 13.797 25.125 3.3594 3.4062 8.7422 4.0117 12.789 1.4219l6-3.8203c5.75 3.2969 11.867 5.832 18.195 7.543l1.5469 6.9531c1.0469 4.6523 5.25 8.0273 10 8.0273h17.562c4.7812 0 8.9922-3.3945 10.008-8.0508zm-26.164-3.9492-1.4453-6.5391c-0.80469-3.8359-3.7031-6.8281-7.5547-7.8086-5.8984-1.5117-11.594-3.8711-16.945-7.0312-7.6992-4.4844-13.184 2.3477-16.477 3.8047l-10.43-10.422 3.6953-5.7578c2.0547-3.3047 2.0781-7.4414 0.085937-10.754-3.1016-5.2422-5.4609-10.941-7-16.891-0.95312-3.8008-3.8984-6.6953-7.7266-7.5664l-6.625-1.4609v-14.766l6.6641-1.4531c3.7734-0.86328 6.7188-3.75 7.6797-7.5195 1.5391-5.9648 3.8984-11.672 6.9844-16.91 2.0156-3.3438 1.9922-7.4727-0.10156-10.836l-3.6484-5.7031 10.422-10.43 5.6953 3.6445c3.2344 2.0859 7.3828 2.1562 10.82 0.15234 5.3047-3.1484 10.992-5.5117 16.891-7.0234 3.7969-0.95703 6.7656-4.0117 7.5547-7.7266l1.4609-6.6055h14.75l1.4688 6.6211c0.83594 3.7578 3.7031 6.7148 7.5312 7.7266 5.9609 1.5273 11.641 3.8828 16.914 7.0234 3.3906 1.9844 7.5234 1.9141 10.805-0.16016l5.7031-3.6523 10.422 10.43c-1.3164 3.0156-8.3125 8.9844-3.7812 16.512 9.043 15.328 5.1875 22.289 14.758 24.469l6.6016 1.4414v14.766c-3.0938 1.207-12.207 0.47266-14.344 8.9961-4.3945 17.164-12.09 19.32-6.8828 27.723l3.6484 5.7031-10.414 10.434-5.7188-3.6406c-3.2578-2.0859-7.4141-2.1484-10.812-0.14844-5.3047 3.1406-10.992 5.5-16.898 7.0117-3.7891 0.96484-6.6719 3.9102-7.5391 7.7227l-1.4609 6.625z"/>
  <path d="m398.21 223.79c0-25.461-20.711-46.176-46.172-46.176-25.484 0-46.219 20.715-46.219 46.176 0 25.461 20.734 46.176 46.219 46.176 25.461 0 46.172-20.715 46.172-46.176zm-46.172 34.176c-18.867 0-34.219-15.332-34.219-34.176s15.352-34.176 34.219-34.176c18.844 0 34.172 15.332 34.172 34.176s-15.328 34.176-34.172 34.176z"/>
  <use x="70" y="680" xlink:href="#u"/>
  <use x="99.355469" y="680" xlink:href="#d"/>
  <use x="119.082031" y="680" xlink:href="#b"/>
  <use x="146.210938" y="680" xlink:href="#l"/>
  <use x="173.203125" y="680" xlink:href="#a"/>
  <use x="192.324219" y="680" xlink:href="#b"/>
  <use x="219.453125" y="680" xlink:href="#k"/>
  <use x="262.011719" y="680" xlink:href="#j"/>
  <use x="290.644531" y="680" xlink:href="#i"/>
  <use x="330.644531" y="680" xlink:href="#h"/>
  <use x="361.601562" y="680" xlink:href="#b"/>
  <use x="388.730469" y="680" xlink:href="#g"/>
  <use x="412.441406" y="680" xlink:href="#a"/>
  <use x="431.5625" y="680" xlink:href="#c"/>
  <use x="459.042969" y="680" xlink:href="#d"/>
  <use x="478.769531" y="680" xlink:href="#t"/>
  <use x="516.503906" y="680" xlink:href="#f"/>
  <use x="545.820312" y="680" xlink:href="#c"/>
  <use x="573.300781" y="680" xlink:href="#s"/>
  <use x="587.011719" y="680" xlink:href="#e"/>
  <use x="615.488281" y="680" xlink:href="#a"/>
  <use x="70" y="720" xlink:href="#r"/>
  <use x="87.402344" y="720" xlink:href="#d"/>
  <use x="107.128906" y="720" xlink:href="#c"/>
  <use x="134.609375" y="720" xlink:href="#q"/>
  <use x="190.214844" y="720" xlink:href="#a"/>
  <use x="209.335938" y="720" xlink:href="#p"/>
  <use x="237.8125" y="720" xlink:href="#b"/>
  <use x="278.867188" y="720" xlink:href="#o"/>
  <use x="312.34375" y="720" xlink:href="#c"/>
  <use x="339.824219" y="720" xlink:href="#n"/>
  <use x="368.300781" y="720" xlink:href="#e"/>
  <use x="410.703125" y="720" xlink:href="#f"/>
  <use x="440.019531" y="720" xlink:href="#d"/>
  <use x="459.746094" y="720" xlink:href="#c"/>
  <use x="487.226562" y="720" xlink:href="#m"/>
  <use x="500.9375" y="720" xlink:href="#b"/>
  <use x="528.066406" y="720" xlink:href="#g"/>
  <use x="551.777344" y="720" xlink:href="#a"/>
 </g>
</svg>
