<svg id="Layer_1" data-name="Layer 1" xmlns="http://www.w3.org/2000/svg" viewBox="0 0 700.01 486.62"><defs><style>.cls-1{fill:#222e99;}</style></defs><path class="cls-1" d="M692,431.14a70.87,70.87,0,0,1-28,6.37c-7.43,0-21.1-4-34.32-7.95-15.15-4.48-29.46-8.72-39.13-8.72-8.05,0-16.48,1.42-26.23,3.05-12.23,2.05-26.09,4.37-42.6,4.37-22.4,0-43-5.88-51.48-8.65V330.26c14.92-1.76,60-6.34,96.31-2.43,43.35,4.66,125.09,37.41,125.91,37.74a5.56,5.56,0,0,0,4.15-10.31c-3.41-1.37-84-33.65-128.87-38.48-37-4-82.54.55-98.31,2.39a25.05,25.05,0,0,0-24.23-18.87H429.67c12.7-37.83,20.25-68.6,20.33-68.93a5.57,5.57,0,0,0-3.7-6.61l-3.82-1.21,9.64-30.83,136.16-13.95,47.53,26.89A31.75,31.75,0,0,0,683.21,178V168A26.76,26.76,0,0,0,700,143.26V100.18A26.82,26.82,0,0,0,683.21,75.4V25a25.06,25.06,0,0,0-25-25,25.1,25.1,0,0,0-23.47,16.39L609.56,84.68l-31,5.64C533.65,76,453.54,54.63,411.24,68c-18,5.69-38.53,26.7-62.81,64.18l-106.6,19.4a20.19,20.19,0,0,0-8.56-1.91,18.3,18.3,0,0,0-2.19.12c-2.75.29-5.58.63-8.42,1a20,20,0,0,0-.34-4.75,20.26,20.26,0,0,0-19.87-16.39,20.64,20.64,0,0,0-2.2.11c-24.25,2.61-55.72,8.11-67.88,19.51s-47.25,81.77-68.2,128c-2.64,5.81-5.13,11.42-7.46,16.77H5.55a5.56,5.56,0,0,0,0,11.11H91.47c-7.44,16.7-17.17,39.42-21,52.48H5.55a5.55,5.55,0,1,0,0,11.1H68.11a75.5,75.5,0,0,0,10.71,48.7A5.56,5.56,0,0,0,88,411.21c-.14-.21-13.71-20.7-7.88-46.78,2-9,11.35-32.37,25-62.5,26.87-59.28,56.95-116.3,65.68-124.5,6.11-5.73,22.13-10.85,45.08-14.42,5.39-.84,11.06-1.58,16.35-2.15a9.19,9.19,0,0,1,10,7.35A9.17,9.17,0,0,1,235,179l0,0-42.61,8.33a5.55,5.55,0,1,0,2.13,10.9l62.75-12.27a13,13,0,0,1,2.37-.23,12.08,12.08,0,0,1,11,17.11l0,.06a12.09,12.09,0,0,1-8.64,6.78l-13.1,2.57a5.54,5.54,0,0,0-4.1,7.47c.09.25,9.34,24.37.45,38.65-3.69,5.94-13.73,10.54-24.36,15.42-12.25,5.61-26.14,12-34.12,22.53a33.83,33.83,0,0,0-4.68,8.48c-3.12,8.36-4.48,25.3-6.19,46.73-2.76,34.44-6.54,81.61-20.08,105.12-3.2,5.58-6.81,9.54-10.73,11.77-34.06,19.4-137-6.28-138.07-6.54A5.56,5.56,0,0,0,4.2,472.63c3.13.78,56.1,14,100.24,14,18.24,0,35-2.25,46.05-8.57,4.83-2.74,9.16-7,12.94-12.76,8.59.87,32,2.94,60.21,2.94,8,0,16.41-.17,25-.58,39.48-1.91,70.41-8.31,92-19H445.12a25.09,25.09,0,0,0,23.94-17.7c10.13,3.14,30.52,8.45,52.59,8.45,17.44,0,31.77-2.4,44.43-4.52,9.27-1.56,17.27-2.9,24.4-2.9,8.06,0,22.25,4.2,36,8.26,14.62,4.33,28.42,8.41,37.47,8.41a81,81,0,0,0,33-7.55,5.56,5.56,0,0,0-5-9.94ZM211.21,152.51c-24.21,4-40.36,9.65-48,16.81-11.94,11.23-45.62,78.54-66.72,124.76H68.84q2.61-5.91,5.45-12.18c26.86-59.28,56.94-116.3,65.68-124.5,7.52-7,30.49-13.24,61.44-16.56a9.14,9.14,0,0,1,9.8,11.67ZM431.9,220.16l-60.08-19.22,68.28-7ZM672.1,178a20.65,20.65,0,0,1-30.82,18L607.39,176.8l64.71-6.62Zm-27-157.79a13.9,13.9,0,0,1,22.9-5A13.74,13.74,0,0,1,672.1,25V73.55a26.58,26.58,0,0,0-3.55.39l-46.29,8.42ZM414.59,78.61c33.78-10.69,95.63,3.13,140.09,16L363.61,129.44c24.74-36.22,41.24-47.74,51-50.83ZM244.12,456.71a605.19,605.19,0,0,1-75-2c11.69-26.58,15-68.22,17.76-102.28,1.58-19.77,3-36.83,5.52-43.74a21.6,21.6,0,0,1,1.68-3.46h50a296.11,296.11,0,0,1,10.59,77.07,268.73,268.73,0,0,1-10.57,74.45ZM273.06,277.9a27,27,0,0,1-24.73,16.18H205.61c5.9-3.84,12.92-7.07,19.81-10.23,12.19-5.59,23.71-10.86,29.17-19.64,8.63-13.86,5.19-32.64,2.49-42.3l7-1.37a23.26,23.26,0,0,0,15-10.1l26.92-2.76c-13.82,27.47-25.35,53-32.87,70.22Zm41.88-82.31-32.18,3.3a22.77,22.77,0,0,0-3.39-13.16L499.1,149.58a5.55,5.55,0,0,0-1.81-11l-229,37.68A23.11,23.11,0,0,0,255.12,175l-2.36.46a20,20,0,0,0-1.28-14.34L670.55,84.87a15.33,15.33,0,0,1,6,.07,15.63,15.63,0,0,1,12.27,13.53l-50.86,7.21a5.55,5.55,0,0,0,.78,11,5.32,5.32,0,0,0,.79,0l49.4-7v22H644a5.56,5.56,0,0,0,0,11.11h44.91v.45a15.6,15.6,0,0,1-12.41,15.23c-.47.1-1,.18-1.58.25ZM419.55,328.74c-20.44,54.19-41.4,90.88-62.31,109a5.55,5.55,0,0,1-7.28-8.39c19.23-16.69,39.69-52.85,59.19-104.55a5.56,5.56,0,0,1,10.4,3.92Z"/></svg>