<?xml version="1.0" encoding="UTF-8"?>
<svg width="700pt" height="700pt" version="1.1" viewBox="0 0 700 700" fill = "#222E99" xmlns="http://www.w3.org/2000/svg" xmlns:xlink="http://www.w3.org/1999/xlink">
 <g>
  <path d="m87.5 551.25h105c2.3203 0 4.5469-0.92188 6.1875-2.5625s2.5625-3.8672 2.5625-6.1875v-61.25c-0.039062-10.496-3.8555-20.633-10.746-28.551s-16.398-13.098-26.793-14.586c8.8438-6.6719 14.469-16.758 15.496-27.789 1.0234-11.027-2.6445-21.98-10.105-30.168-7.4609-8.1875-18.023-12.852-29.102-12.852s-21.641 4.6641-29.102 12.852c-7.4609 8.1875-11.129 19.141-10.105 30.168 1.0273 11.031 6.6523 21.117 15.496 27.789-10.395 1.4883-19.902 6.668-26.793 14.586s-10.707 18.055-10.746 28.551v61.25c0 2.3203 0.92188 4.5469 2.5625 6.1875s3.8672 2.5625 6.1875 2.5625zm52.5-166.25c5.8008 0 11.367 2.3047 15.469 6.4062s6.4062 9.668 6.4062 15.469-2.3047 11.367-6.4062 15.469-9.668 6.4062-15.469 6.4062-11.367-2.3047-15.469-6.4062-6.4062-9.668-6.4062-15.469 2.3047-11.367 6.4062-15.469 9.668-6.4062 15.469-6.4062zm-43.75 96.25c0-6.9609 2.7656-13.641 7.6875-18.562s11.602-7.6875 18.562-7.6875h35c6.9609 0 13.641 2.7656 18.562 7.6875s7.6875 11.602 7.6875 18.562v52.5h-87.5z"/>
  <path d="m253.75 271.25h17.5v17.5h-17.5z"/>
  <path d="m428.75 271.25h17.5v17.5h-17.5z"/>
  <path d="m341.25 183.75h17.5v17.5h-17.5z"/>
  <path d="m275.73 218.14 12.375-12.375 12.375 12.375-12.375 12.375z"/>
  <path d="m399.52 341.86 12.375-12.375 12.375 12.375-12.375 12.375z"/>
  <path d="m275.72 341.85 12.375-12.375 12.375 12.375-12.375 12.375z"/>
  <path d="m399.53 218.15 12.375-12.375 12.375 12.375-12.375 12.375z"/>
  <path d="m290.24 266.18c-2.9492 12.793-1.7109 26.195 3.5352 38.234 5.2461 12.035 14.223 22.066 25.602 28.613v21.352c0 10.941 5.8359 21.051 15.312 26.523 9.4766 5.4688 21.148 5.4688 30.625 0 9.4766-5.4727 15.312-15.582 15.312-26.523v-21.352c17.844-10.348 29.281-28.98 30.43-49.578 1.1445-20.594-8.1523-40.383-24.734-52.648-16.586-12.266-38.23-15.363-57.586-8.2344-19.359 7.1289-33.828 23.52-38.496 43.613zm72.887 88.199c0 7.25-5.875 13.125-13.125 13.125s-13.125-5.875-13.125-13.125v-4.375h26.25zm-13.125-118.12c13.395 0.011719 26.043 6.1602 34.328 16.684 8.2891 10.523 11.297 24.262 8.168 37.285-3.125 13.023-12.047 23.895-24.207 29.508-3.1016 1.4336-5.0859 4.543-5.0781 7.9609v4.8125h-26.25v-4.8125c0.011718-3.418-1.9727-6.5273-5.0742-7.9609-11.148-5.1406-19.629-14.73-23.363-26.426-3.7344-11.695-2.3828-24.422 3.7227-35.07 6.1094-10.652 16.41-18.246 28.391-20.93 3.0742-0.68359 6.2148-1.0352 9.3633-1.0508z"/>
  <path d="m583.71 79.363c8.8438-6.6719 14.469-16.758 15.496-27.789 1.0234-11.027-2.6445-21.98-10.105-30.168-7.4609-8.1875-18.023-12.852-29.102-12.852s-21.641 4.6641-29.102 12.852c-7.4609 8.1875-11.129 19.141-10.105 30.168 1.0273 11.031 6.6523 21.117 15.496 27.789-10.395 1.4883-19.902 6.668-26.793 14.586s-10.707 18.055-10.746 28.551v61.25c0 2.3203 0.92188 4.5469 2.5625 6.1875s3.8672 2.5625 6.1875 2.5625h105c2.3203 0 4.5469-0.92188 6.1875-2.5625s2.5625-3.8672 2.5625-6.1875v-61.25c-0.039062-10.496-3.8555-20.633-10.746-28.551s-16.398-13.098-26.793-14.586zm-23.711-53.113c5.8008 0 11.367 2.3047 15.469 6.4062s6.4062 9.668 6.4062 15.469-2.3047 11.367-6.4062 15.469-9.668 6.4062-15.469 6.4062-11.367-2.3047-15.469-6.4062-6.4062-9.668-6.4062-15.469 2.3047-11.367 6.4062-15.469 9.668-6.4062 15.469-6.4062zm43.75 148.75h-87.5v-52.5c0-6.9609 2.7656-13.641 7.6875-18.562s11.602-7.6875 18.562-7.6875h35c6.9609 0 13.641 2.7656 18.562 7.6875s7.6875 11.602 7.6875 18.562z"/>
  <path d="m568.75 371.88c-0.023438 22.039-8.7891 43.168-24.371 58.754-15.586 15.582-36.715 24.348-58.754 24.371h-249.38v17.5h249.38c35.949 0 69.168-19.18 87.145-50.312 17.973-31.133 17.973-69.492 0-100.62-17.977-31.133-51.195-50.312-87.145-50.312h-4.375v17.5h4.375c22.039 0.023438 43.168 8.7891 58.754 24.371 15.582 15.586 24.348 36.715 24.371 58.754z"/>
  <path d="m214.38 288.75h4.375v-17.5h-4.375c-29.699 0-57.141-15.844-71.988-41.562-14.848-25.719-14.848-57.406 0-83.125 14.848-25.719 42.289-41.562 71.988-41.562h212.89l-21 14.699 9.9766 14.352 43.75-30.625c2.3438-1.6367 3.7422-4.3164 3.7422-7.1758s-1.3984-5.5391-3.7422-7.1758l-43.75-30.625-9.9766 14.352 21 14.699h-212.89c-35.949 0-69.168 19.18-87.145 50.312-17.973 31.133-17.973 69.492 0 100.62 17.977 31.133 51.195 50.312 87.145 50.312z"/>
  <use x="70" y="691.25" xlink:href="#o"/>
  <use x="102.109375" y="691.25" xlink:href="#j"/>
  <use x="123.683594" y="691.25" xlink:href="#b"/>
  <use x="153.355469" y="691.25" xlink:href="#a"/>
  <use x="182.878906" y="691.25" xlink:href="#i"/>
  <use x="203.792969" y="691.25" xlink:href="#b"/>
  <use x="233.464844" y="691.25" xlink:href="#h"/>
  <use x="280.011719" y="691.25" xlink:href="#g"/>
  <use x="311.328125" y="691.25" xlink:href="#f"/>
  <use x="355.078125" y="691.25" xlink:href="#e"/>
  <use x="388.980469" y="691.25" xlink:href="#a"/>
  <use x="418.503906" y="691.25" xlink:href="#n"/>
  <use x="464.09375" y="691.25" xlink:href="#d"/>
  <use x="479.089844" y="691.25" xlink:href="#c"/>
  <use x="525.464844" y="691.25" xlink:href="#m"/>
  <use x="561.375" y="691.25" xlink:href="#d"/>
  <use x="576.371094" y="691.25" xlink:href="#c"/>
  <use x="607.519531" y="691.25" xlink:href="#l"/>
  <use x="636.613281" y="691.25" xlink:href="#a"/>
  <use x="666.136719" y="691.25" xlink:href="#b"/>
  <use x="695.808594" y="691.25" xlink:href="#k"/>
 </g>
</svg>
