<?xml version="1.0" encoding="UTF-8"?>
<svg width="700pt" height="700pt" version="1.1" fill = "#222E99" viewBox="0 0 700 700" xmlns="http://www.w3.org/2000/svg" xmlns:xlink="http://www.w3.org/1999/xlink">
 <g>
  <path d="m403.34 186.46c0 4.9102-3.9805 8.8906-8.8906 8.8906s-8.8906-3.9805-8.8906-8.8906c0-4.9102 3.9805-8.8906 8.8906-8.8906s8.8906 3.9805 8.8906 8.8906zm8.2344-45.684c-11.09-7.8125-25.785-5.3359-26.402-5.2305-2.4141 0.42578-4.0195 2.7227-3.6016 5.1367 0.41797 2.4141 2.7148 4.0312 5.1328 3.6211 0.11719-0.019532 11.723-1.918 19.75 3.7383 0.77734 0.55078 1.6719 0.8125 2.5586 0.8125 1.3984 0 2.7695-0.65625 3.6367-1.8828 1.4141-2.0078 0.92969-4.7812-1.0742-6.1953zm-106.01 36.793c-4.9102 0-8.8906 3.9805-8.8906 8.8906 0 4.9102 3.9805 8.8906 8.8906 8.8906s8.8906-3.9805 8.8906-8.8906c-0.003906-4.9102-3.9805-8.8906-8.8906-8.8906zm9.2773-42.02c-0.62109-0.10938-15.312-2.5859-26.402 5.2305-2.0078 1.4141-2.4883 4.1875-1.0703 6.1914 0.86719 1.2266 2.2383 1.8828 3.6367 1.8828 0.88281 0 1.7773-0.26172 2.5586-0.8125 8.0039-5.6406 19.566-3.7695 19.75-3.7383 2.4141 0.41797 4.7109-1.1914 5.1406-3.6094 0.41797-2.4141-1.1953-4.7188-3.6133-5.1445zm63.352 67.906c2.4922 8.8008-2.6562 18.004-11.477 20.504-5.5195 1.5625-11.148 2.3555-16.723 2.3555-5.582 0-11.207-0.79297-16.723-2.3555-8.8203-2.5-13.965-11.707-11.469-20.531 2.0156-7.125 8.5938-12.105 16-12.105 1.543 0 3.0781 0.21484 4.5625 0.64062 5.0547 1.4297 10.184 1.4336 15.293-0.007813 1.4609-0.41797 2.9844-0.62891 4.5195-0.62891 7.4258 0 14.012 4.9883 16.016 12.129zm-8.5547 2.4141c-0.93359-3.332-4-5.6523-7.457-5.6523-0.71484 0-1.418 0.097656-2.0938 0.29297-6.6992 1.8945-13.496 1.8906-20.152 0.003906-0.69922-0.19922-1.4102-0.30078-2.125-0.30078-3.4453 0-6.5078 2.3164-7.4453 5.6328-1.1641 4.1094 1.2305 8.3984 5.3359 9.5586 9.4531 2.6797 19.133 2.6836 28.598 0.003906 4.1016-1.1641 6.5-5.4453 5.3398-9.5391zm-196.34-46.91c16.102-11.27 34.848-15.535 49.102-17.047-1.8086-13.566-2.0977-29.535 0.98828-47.227 9.7266-55.75 61.789-94.688 126.61-94.688 29.254 0 55.895 7.9531 77.23 21.781l85.852-17.707c7.6875-1.582 15.223 3.375 16.805 11.059l6.9453 33.676c3.3164-1.7773 6.9141-3.0859 10.648-3.8555 9.5352-1.9688 19.227-0.39062 27.285 4.4375 8.1797 4.8984 13.707 12.551 15.562 21.539 3.7969 18.414-9.2422 36.719-29.07 40.809-3.7305 0.76953-7.5547 0.99219-11.305 0.67188l6.9453 33.676c1.5859 7.6836-3.375 15.223-11.059 16.805l-40.078 8.2656c-0.30078 0.0625-0.60156 0.09375-0.89844 0.09375-1.2148 0-2.3945-0.5-3.2422-1.4062-1.0586-1.1289-1.4531-2.7266-1.043-4.2188 1.2344-4.4883 1.3789-9.3281 0.41406-14.004-2.4297-11.77-11.613-20.727-22.219-22.355-1.293 26.453-9.0781 45.926-13.23 54.57 15.059 6.6328 21.875 26.504 15.188 44.816-5.3008 14.516-17.875 24.336-30.82 24.598-2.2344 6.0078-4.6523 11.23-7.2188 15.512-9.6328 16.059-32.531 39.16-61.582 49.77v9.418c5.7461 2.5742 18.324 9.293 24.098 20.84 0.75391 1.5039 1.4375 3.332 2.0625 5.375 24.852 12.609 46.809 30.234 65.422 52.531 3.0156 0.19531 6.0547-0.042968 9.0586-0.76562 7.293-1.7578 13.512-5.9961 17.5-11.941 3.9141-5.8281 5.207-12.602 3.6484-19.078-1.5586-6.4766-5.7969-11.918-11.934-15.324-6.2617-3.4766-13.723-4.4219-21.02-2.6641-4.6406 1.1172-8.9609 3.3086-12.496 6.3359-1.1758 1.0039-2.7891 1.332-4.2617 0.85547-1.4727-0.47656-2.5898-1.6836-2.9531-3.1875l-9.5781-39.785c-1.8359-7.625 2.875-15.32 10.5-17.16l33.43-8.0508c-1.8867-3.2578-3.3125-6.8125-4.207-10.516-4.7383-19.684 6.2734-39.277 24.551-43.676 8.9258-2.1523 18.199-0.40625 26.113 4.9141 7.8008 5.2383 13.348 13.336 15.629 22.801 0.89062 3.7031 1.2383 7.5195 1.043 11.277l33.43-8.0508c3.6953-0.89063 7.5156-0.28516 10.754 1.6953 3.2422 1.9844 5.5156 5.1094 6.4062 8.8047l9.5781 39.785c0.36328 1.5039-0.082031 3.0859-1.1797 4.1836-1.0938 1.0938-2.6797 1.543-4.1836 1.1797-4.5234-1.0859-9.3672-1.0703-14.012 0.046875-7.293 1.7578-13.512 5.9961-17.504 11.941-3.9141 5.8242-5.207 12.602-3.6484 19.078 1.5586 6.4766 5.7969 11.918 11.934 15.324 6.2578 3.4766 13.723 4.4219 21.02 2.6641 4.6406-1.1172 8.9609-3.3086 12.496-6.3359 1.1719-1.0078 2.7891-1.332 4.2617-0.85547 1.4727 0.47656 2.5898 1.6836 2.9531 3.1875l9.5781 39.785c1.8359 7.625-2.875 15.32-10.5 17.16l-113.78 27.398c13.75 28.344 23.613 60.828 29.395 97.152 0.20312 1.2852-0.16406 2.5938-1.0078 3.5859-0.84375 0.98828-2.0781 1.5586-3.3789 1.5586l-360.66-0.019531c-1.3008 0-2.5352-0.57031-3.3789-1.5586-0.84375-0.98828-1.2148-2.3008-1.0078-3.5859 7.3555-46.234 21.352-86.48 41.598-119.62 13.609-22.273 30.031-41.348 48.93-56.891-6.4766-0.035156-13.902-0.76953-19.805-3.293-12.141-5.1875-16.949-14.668-18.828-20.707-10.004 3.1289-32.977 7.9883-51.73-5.4688-3.3828-2.4258-6.1641-5.3164-8.4727-8.4844-5.4219 1.3516-17.023 3.8086-29.789 3.8086-10 0-20.711-1.5039-29.738-6.2227-11.234-5.8711-20.191-17.797-24.578-32.711-5.0039-17.016-3.3789-35.27 4.3359-48.836 7.6875-13.508 19.902-20.59 31.715-27.438 10.91-6.3242 21.215-12.301 26.996-22.91 5.8008-16.219 18.035-33.582 37.383-47.125zm1.6094 392.15h69.227v-102.42c0-2.4531 1.9883-4.4453 4.4453-4.4453 2.4531 0 4.4453 1.9883 4.4453 4.4453v102.42h86.207c0.16016-33.535 2.1523-61.184 6.0703-84.309-11.305-15.031-25.164-25.566-41.238-31.301-1.2148-0.43359-2.1836-1.375-2.6523-2.5781-0.46484-1.2031-0.38672-2.5508 0.21875-3.6914 3.7773-7.1016 8.5586-13.223 14.289-18.32h-25.152c-1.2031 0-2.3516-0.48828-3.1875-1.3477-0.83594-0.86328-1.2891-2.0273-1.2539-3.2266 0.039062-1.2734 0.73438-23.238 3.7773-40.723-5.9219 3.3125-11.715 6.957-17.293 10.906-35.457 25.102-80.91 75.699-97.902 174.59zm137.1-122.05c12.207 5.168 23.156 12.93 32.695 23.172-2-15.625-7.4883-29.652-15.77-40.043-6.8906 4.3438-12.477 9.9102-16.926 16.871zm-9.2656-76.312c-4.5898 9.1797-6.6953 35.461-7.3516 49.273h29.664l-5.6055-64.469c-5.2656 2.7539-13.023 7.8281-16.707 15.195zm51.633 113.68c-2.4688 14.039-4.1953 29.836-5.2031 47.73 11.199-38.105 25.688-65.363 43.875-82.68-5.3086-7.207-12.461-13.559-21.332-18.953-7.7461 13.996-13.434 31.688-17.34 53.902zm125.18-51.094c0.30078 0.39453 0.60547 0.77734 0.90625 1.1758 7.6328 10.215 14.531 21.258 20.746 33.043l115.82-27.891c2.8594-0.6875 4.6289-3.5781 3.9375-6.4375l-8.0508-33.43c-3.2578 1.8867-6.8125 3.3125-10.516 4.2031-9.4648 2.2812-19.199 1.0234-27.414-3.5352-8.3359-4.6289-14.113-12.094-16.262-21.016s-0.40625-18.199 4.9141-26.113c5.2383-7.8008 13.336-13.348 22.801-15.625 3.707-0.89063 7.5195-1.2383 11.277-1.043l-8.0508-33.43c-0.6875-2.8594-3.5781-4.6289-6.4375-3.9375l-39.785 9.5781c-1.5039 0.36328-3.0859-0.082031-4.1836-1.1797-1.0938-1.0938-1.543-2.6797-1.1797-4.1836 1.0859-4.5273 1.0703-9.3711-0.046875-14.012-1.7578-7.293-5.9961-13.512-11.941-17.504-5.8281-3.9141-12.602-5.207-19.078-3.6484-13.512 3.2539-21.582 18.035-17.988 32.953 1.1172 4.6406 3.3086 8.9609 6.3359 12.496 1.0078 1.1758 1.3281 2.7891 0.85547 4.2617-0.47656 1.4727-1.6836 2.5898-3.1875 2.9531l-39.785 9.5781c-2.8594 0.6875-4.6289 3.5781-3.9375 6.4375l8.0508 33.43c3.2578-1.8867 6.8125-3.3125 10.516-4.2031 9.4648-2.2812 19.199-1.0234 27.414 3.5352 8.3359 4.6289 14.113 12.094 16.262 21.016 2.1484 8.9219 0.40625 18.199-4.9141 26.113-5.2383 7.8008-13.336 13.348-22.801 15.625-1.418 0.35156-2.8438 0.60547-4.2734 0.78906zm-69.664-49.746c3.0469 17.488 3.7422 39.469 3.7812 40.742 0.035156 1.1992-0.41797 2.3672-1.2539 3.2266-0.83594 0.86328-1.9883 1.3477-3.1875 1.3477h-24.184c7.1992 5.5508 13.094 11.848 17.594 18.836 1.1914 1.8516 0.84766 4.3008-0.80859 5.75-23.352 20.441-40.617 58.293-52.719 115.62h97.863v-102.42c0-2.4531 1.9883-4.4453 4.4453-4.4453 2.4531 0 4.4453 1.9883 4.4453 4.4453v102.42h69.227c-18.715-109.16-71.145-160.96-115.2-185.52zm-29.344-28.039-5.6055 64.469h29.664c-0.65625-13.812-2.7617-40.098-7.3516-49.273-3.6797-7.3633-11.438-12.438-16.707-15.195zm-8.3281-16.262c-7.1367 1.8711-14.57 2.9492-22.219 2.9492s-15.082-1.082-22.219-2.9492v9.4258l6.4297 73.953c7.9961 9.2773 13.867 21.316 17.164 34.867 3.8242-13.344 8.5859-24.738 14.379-34.453l6.4648-74.367-0.003906-9.4258zm82.449-134.66c-7.5508-45.797-35.961-82.363-86.727-111.48 3.2578 9.3203 4.8828 16.773 5.1484 23.344 0.058594 1.4492-0.59375 2.8359-1.7422 3.7148-1.1523 0.87891-2.6602 1.1406-4.043 0.70312-12.645-4.0156-23.746-10.594-33.562-19.934 1.3867 5.9766 2.2734 11.637 2.6875 17.059 0.10937 1.457-0.5 2.8711-1.6328 3.793-1.1328 0.91797-2.6445 1.2227-4.0469 0.8125-16.867-4.9453-28.551-14.223-34.812-27.617-26.754 24.379-43.77 61.195-50.613 109.55 3.3398 33.707 10.66 62.695 19.609 77.613 11.871 19.785 45.465 51.176 85.066 51.176s73.195-31.391 85.066-51.176c8.9453-14.914 16.262-43.875 19.602-77.555zm-217.66 5.8398c-10.086 5.2383-14.316 19.629-9.3906 33.125 3.5742 9.793 11.207 16.816 19.375 18.434-4.3555-14.344-7.7969-31.969-9.9844-51.559zm225.98 0c-2.1875 19.586-5.6289 37.211-9.9844 51.551 8.168-1.6172 15.801-8.6367 19.375-18.43 4.9219-13.492 0.69531-27.883-9.3906-33.121zm-25.961-163.63c20.672 16.539 34.945 39.277 39.582 65.852 1.5703 9.0156 2.2617 17.566 2.3359 25.59 14.875 1.6406 27.426 13.426 30.75 29.535 0.76953 3.7305 0.99219 7.5547 0.67188 11.305l33.676-6.9453c1.3945-0.28906 2.5938-1.1016 3.3789-2.293 0.78516-1.1914 1.0586-2.6172 0.76953-4.0117l-8.2656-40.078c-0.3125-1.5156 0.1875-3.082 1.3125-4.1406 1.1289-1.0586 2.7266-1.4531 4.2188-1.043 4.4844 1.2344 9.3281 1.3789 14.004 0.41406 15.027-3.1016 24.969-16.695 22.16-30.309-1.3438-6.5234-5.4023-12.102-11.422-15.707-6.1406-3.6797-13.57-4.8711-20.922-3.3555-4.6758 0.96484-9.0664 3.0117-12.695 5.9219-1.207 0.96875-2.8281 1.2383-4.2852 0.71484-1.457-0.52344-2.5352-1.7695-2.8477-3.2852l-8.2656-40.078c-0.59375-2.8828-3.4258-4.7461-6.3047-4.1484zm-198.18 142.41c8.8516-46.398 27.688-81.727 56.102-105.14 1.1367-0.9375 2.6641-1.25 4.0781-0.83594 1.4141 0.41406 2.5312 1.5039 2.9805 2.9062 3.8516 12.02 11.988 20.465 24.781 25.676-1.2891-8.5977-3.8047-17.949-7.625-28.371-0.76953-2.0938 0.13672-4.4336 2.1133-5.4688 1.9727-1.0352 4.4141-0.44141 5.6953 1.3828 10.398 14.797 22.098 24.664 36.426 30.621-1.6094-8.707-5.2266-18.062-8.0742-24.898-0.71875-1.7266-0.27734-3.7227 1.1016-4.9844 0.83984-0.76953 1.9141-1.168 3.0039-1.168 0.70312 0 1.4102 0.16406 2.0586 0.50781 54.992 28.758 87.598 65.113 99.266 110.83 5.6758-14.789 13.004-42.266 7.1016-76.082-8.9688-51.418-57.434-87.328-117.86-87.328s-108.89 35.91-117.86 87.324c-5.7617 33.023 1.0898 60.008 6.7031 75.031zm-60.453-5c-28.805 20.164-41.273 50.812-36.688 68.797 1.7188 6.7461 5.6641 12.07 11.41 15.398 6.3281 3.6641 14.582 4.7383 21.547 2.8047 10.73-2.9805 14.359-15.578 14.395-15.707 0.65625-2.3594 3.1016-3.75 5.4609-3.0977 2.3594 0.64844 3.7539 3.0781 3.1133 5.4414-0.19531 0.71484-4.9336 17.574-20.59 21.93-3.0273 0.83984-6.2383 1.2539-9.4844 1.2539-6.5938 0-13.32-1.6992-18.898-4.9297-7.8594-4.5508-13.242-11.777-15.566-20.895-0.98438-3.8594-1.3516-8.207-1.0859-12.875-5.7148 4.8203-12.215 8.5977-18.602 12.301 4.25 2.9883 9.6836 7.4336 13.418 12.785 7.0117 10.055 7.0938 23.934 7.0938 24.52 0 2.4531-1.9883 4.4453-4.4453 4.4453-2.4531 0-4.4453-1.9883-4.4453-4.4453 0-0.10938-0.10156-11.703-5.4961-19.434-4.0938-5.8711-11.137-10.672-14.609-12.824-8 5.0078-15.156 10.609-19.996 19.117-6.5508 11.512-7.8711 27.188-3.5352 41.934 3.707 12.617 11.059 22.582 20.168 27.344 16.242 8.4883 40.203 4.5977 50.742 2.2461-1.7344-3.8359-2.9766-7.8555-3.8594-11.836-9.2344-10.77-20.824-16.449-35.418-17.34-2.4492-0.14844-4.3164-2.2539-4.168-4.707 0.14844-2.4492 2.2578-4.3359 4.707-4.1641 12.699 0.77344 23.762 4.8555 33.043 12.156-0.48438-9.707 0.59375-17.145 0.70312-17.863 0.37109-2.4297 2.6328-4.0977 5.0664-3.7227 2.4258 0.37109 4.0898 2.6367 3.7227 5.0625-0.058594 0.37109-5.4023 37.422 14.527 51.719 20.074 14.402 47.773 2.8438 48.051 2.7227 1.3164-0.5625 2.8242-0.45703 4.0508 0.28516 1.2227 0.74219 2.0195 2.0273 2.1328 3.4531 0.046875 0.50391 1.3359 13.078 14.633 18.762 7.1797 3.0664 19.941 3.0664 29.078 1.7578 7.7383-5.4141 15.852-10.285 24.164-14.504 0.625-2.0352 1.3086-3.8594 2.0625-5.3633 5.7734-11.547 18.352-18.266 24.098-20.84v-9.418c-3.8594-1.4102-7.6094-3.0469-11.234-4.8516-2.4961 2.2305-9.2461 7.625-18.941 10.637-0.49609 0.15234-0.99219 0.29688-1.4883 0.43359 0.34375 4.7578 0.015625 12.129-4.1992 17.703-6.5039 8.5977-18.812 8.9062-19.336 8.9141h-0.078124c-2.418 0-4.3984-1.9414-4.4414-4.3672-0.042969-2.4531 1.9141-4.4766 4.3672-4.5195 0.066406-0.003906 8.5273-0.27344 12.398-5.3906 2.293-3.0312 2.6016-7.5508 2.4648-10.785-1.1523 0.085938-2.3047 0.13281-3.457 0.13281-3.2188 0-6.4414-0.34375-9.6562-1.0352-8.4805-1.8242-15.258-7.4414-21.41-14.125-3.7969-1.1172-17.199-4.7578-26.203-3.3086-9.7461 1.5664-15.438 8.8008-15.492 8.875-0.87891 1.1328-2.1992 1.7305-3.5352 1.7305-0.94141 0-1.8867-0.29688-2.6914-0.91016-1.9414-1.4844-2.3281-4.25-0.85156-6.2031 0.3125-0.41406 7.793-10.121 21.156-12.27 5.6055-0.90234 12.242-0.28125 17.988 0.71484-8.1992-9.957-16.137-18.887-26.516-18.887-20.805 0-26.383 21.527-26.609 22.445-0.58984 2.3789-2.9922 3.832-5.3711 3.2539-2.3789-0.58203-3.8398-2.9727-3.2656-5.3555 2.4414-10.113 12.953-29.234 35.246-29.234 15.25 0 25.27 12.23 34.965 24.059 7.8086 9.5273 15.18 18.527 24.457 20.523 6.2969 1.3516 12.664 1.0586 18.914-0.88281 5.8164-1.8047 10.367-4.6719 13.172-6.7617-17.746-10.672-31.746-25.062-39.672-36.77-3.1016 1.375-7.7539 2.9141-13.043 2.9141-0.83984 0-1.6953-0.039062-2.5625-0.125-10.957-1.0664-16.891-9.2539-17.137-9.6016-1.4219-2-0.95312-4.7773 1.0508-6.1992 2-1.4219 4.7773-0.95312 6.1992 1.0508 0.13672 0.1875 3.9258 5.2383 10.754 5.9023 3.9219 0.37891 7.5938-0.62891 10.172-1.6562-1.7188-3.3594-3.3594-7.1523-4.9141-11.324-12.945-0.26172-25.52-10.078-30.82-24.598-0.75-2.0547-1.3203-4.1328-1.7383-6.2031-6.6133-0.36328-13.293 0.36328-19.898 2.1797-0.39453 0.10938-0.79297 0.16016-1.1797 0.16016-1.9492 0-3.7383-1.293-4.2812-3.2656-0.64844-2.3672 0.74219-4.8125 3.1055-5.4648 7.1055-1.9531 14.293-2.7852 21.441-2.5312 0.23828-13.105 6.8203-24.883 17.754-29.695-2.918-6.1016-7.6445-17.602-10.645-33.117-13.211 1.3438-30.672 5.2031-45.438 15.539z"/>
  <use x="70" y="576.667969" xlink:href="#v"/>
  <use x="74.078125" y="576.667969" xlink:href="#d"/>
  <use x="76.820312" y="576.667969" xlink:href="#b"/>
  <use x="80.585937" y="576.667969" xlink:href="#l"/>
  <use x="84.335937" y="576.667969" xlink:href="#a"/>
  <use x="86.992188" y="576.667969" xlink:href="#b"/>
  <use x="90.757812" y="576.667969" xlink:href="#f"/>
  <use x="96.671875" y="576.667969" xlink:href="#k"/>
  <use x="100.648438" y="576.667969" xlink:href="#e"/>
  <use x="106.203125" y="576.667969" xlink:href="#j"/>
  <use x="110.5" y="576.667969" xlink:href="#i"/>
  <use x="116.289062" y="576.667969" xlink:href="#b"/>
  <use x="120.058594" y="576.667969" xlink:href="#a"/>
  <use x="122.714844" y="576.667969" xlink:href="#h"/>
  <use x="126.667969" y="576.667969" xlink:href="#e"/>
  <use x="130.289062" y="576.667969" xlink:href="#u"/>
  <use x="133.597656" y="576.667969" xlink:href="#a"/>
  <use x="138.1875" y="576.667969" xlink:href="#t"/>
  <use x="142.1875" y="576.667969" xlink:href="#a"/>
  <use x="144.84375" y="576.667969" xlink:href="#g"/>
  <use x="148.800781" y="576.667969" xlink:href="#f"/>
  <use x="152.777344" y="576.667969" xlink:href="#s"/>
  <use x="154.679688" y="576.667969" xlink:href="#c"/>
  <use x="70" y="582.222656" xlink:href="#r"/>
  <use x="72.417969" y="582.222656" xlink:href="#d"/>
  <use x="75.160156" y="582.222656" xlink:href="#c"/>
  <use x="78.976562" y="582.222656" xlink:href="#i"/>
  <use x="86.699219" y="582.222656" xlink:href="#a"/>
  <use x="89.355469" y="582.222656" xlink:href="#h"/>
  <use x="93.308594" y="582.222656" xlink:href="#b"/>
  <use x="99.011719" y="582.222656" xlink:href="#q"/>
  <use x="103.660156" y="582.222656" xlink:href="#c"/>
  <use x="107.476562" y="582.222656" xlink:href="#g"/>
  <use x="111.433594" y="582.222656" xlink:href="#p"/>
  <use x="117.320312" y="582.222656" xlink:href="#o"/>
  <use x="121.394531" y="582.222656" xlink:href="#d"/>
  <use x="124.132812" y="582.222656" xlink:href="#c"/>
  <use x="127.949219" y="582.222656" xlink:href="#n"/>
  <use x="129.855469" y="582.222656" xlink:href="#b"/>
  <use x="133.621094" y="582.222656" xlink:href="#m"/>
  <use x="136.914062" y="582.222656" xlink:href="#a"/>
 </g>
</svg>
