<?xml version="1.0" encoding="UTF-8"?>
<svg width="700pt" height="700pt" fill = "#222E99" version="1.1" viewBox="0 0 700 700" xmlns="http://www.w3.org/2000/svg" xmlns:xlink="http://www.w3.org/1999/xlink">
  <g>
  <path d="m443.34 56c-72.156 0-130.67 58.516-130.67 130.66v18.246l-35.875 86.613h-0.035156c-0.91406 2.1914-1.4219 4.5938-1.4219 7.1406 0 10.281 8.3672 18.672 18.664 18.672h18.664v37.328c0 30.918 25.07 56 56 56h46.672v93.336h158.67v-317.34c0-72.148-58.477-130.66-130.66-130.66zm93.328 410.67h-84v-93.332h-84c-10.281 0-18.664-8.3906-18.664-18.672v-74.668h-28.016l28.016-67.652v-25.68c0-51.457 41.875-93.336 93.336-93.336 51.477 0 93.328 41.875 93.328 93.336z"/>
  <path d="m248.14 304.21-34.484-14.297c-17.32 41.746-17.32 87.758-0.078125 129.54l34.531-14.258c-13.492-32.594-13.461-68.426 0.03125-100.98z"/>
  <path d="m179.16 275.62-34.492-14.293c-23.91 57.652-25.809 124.45-0.070312 186.68l34.492-14.293c-21.078-50.961-21.078-107.11 0.070312-158.09z"/>
  <use x="70" y="644" xlink:href="#v"/>
  <use x="90.550781" y="644" xlink:href="#d"/>
  <use x="104.359375" y="644" xlink:href="#a"/>
  <use x="123.347656" y="644" xlink:href="#f"/>
  <use x="142.242188" y="644" xlink:href="#c"/>
  <use x="155.628906" y="644" xlink:href="#a"/>
  <use x="174.617188" y="644" xlink:href="#n"/>
  <use x="204.410156" y="644" xlink:href="#m"/>
  <use x="224.453125" y="644" xlink:href="#l"/>
  <use x="252.453125" y="644" xlink:href="#k"/>
  <use x="275.695312" y="644" xlink:href="#f"/>
  <use x="294.585938" y="644" xlink:href="#e"/>
  <use x="314.523438" y="644" xlink:href="#j"/>
  <use x="324.117188" y="644" xlink:href="#i"/>
  <use x="343.464844" y="644" xlink:href="#h"/>
  <use x="363.984375" y="644" xlink:href="#b"/>
  <use x="383.222656" y="644" xlink:href="#i"/>
  <use x="392.820312" y="644" xlink:href="#u"/>
  <use x="409.484375" y="644" xlink:href="#g"/>
  <use x="429.421875" y="644" xlink:href="#j"/>
  <use x="439.015625" y="644" xlink:href="#e"/>
  <use x="70" y="672" xlink:href="#t"/>
  <use x="82.183594" y="672" xlink:href="#d"/>
  <use x="95.992188" y="672" xlink:href="#b"/>
  <use x="115.226562" y="672" xlink:href="#s"/>
  <use x="154.152344" y="672" xlink:href="#c"/>
  <use x="167.535156" y="672" xlink:href="#g"/>
  <use x="187.46875" y="672" xlink:href="#a"/>
  <use x="216.207031" y="672" xlink:href="#r"/>
  <use x="239.640625" y="672" xlink:href="#b"/>
  <use x="258.878906" y="672" xlink:href="#q"/>
  <use x="278.8125" y="672" xlink:href="#e"/>
  <use x="308.492188" y="672" xlink:href="#h"/>
  <use x="329.015625" y="672" xlink:href="#d"/>
  <use x="342.820312" y="672" xlink:href="#b"/>
  <use x="362.058594" y="672" xlink:href="#p"/>
  <use x="371.65625" y="672" xlink:href="#a"/>
  <use x="390.648438" y="672" xlink:href="#o"/>
  <use x="407.242188" y="672" xlink:href="#c"/>
 </g>
</svg>
